<svg width="52" height="74" viewBox="0 0 52 74" fill="none" xmlns="http://www.w3.org/2000/svg">
<path d="M14.4622 0.751335C14.4622 1.41095 16.0576 5.27441 17.9345 9.32634L21.4067 16.7706L19.1544 18.561C17.8406 19.5033 16.6206 20.3514 16.3391 20.3514C16.0576 20.3514 13.993 16.8648 11.6469 12.7187C7.89312 5.8398 4.79625 2.44749 3.48243 3.76672C3.2009 3.95518 4.60856 8.94942 6.48545 14.6975L9.9577 25.1571L4.51472 30.5283C-0.459034 35.2398 -0.834412 35.8052 1.04248 36.0879C2.16861 36.3706 5.07779 35.6168 7.51774 34.5802C9.9577 33.4494 12.0223 32.6014 12.21 32.6014C12.8669 32.6014 17.2776 43.1552 17.2776 44.6629C17.2776 45.511 15.3068 47.961 12.8669 50.1283C10.3331 52.2956 8.73772 54.4629 9.1131 54.8398C9.48847 55.2168 12.1161 54.8398 14.8376 53.8975C17.6529 52.9552 20.2806 52.3898 20.8436 52.7668C21.4067 53.0495 24.0344 57.4783 26.662 62.5668C32.5742 73.686 35.2018 76.3245 36.328 72.0841C36.6095 70.9533 35.2018 65.2995 33.0434 59.1745L29.2896 48.2437L31.4481 46.4533L33.6065 44.7571L38.2049 53.7091C41.5833 60.3995 43.2725 62.7552 44.5863 62.7552C47.1201 62.7552 46.9324 57.8552 44.0232 47.3014C42.7094 42.6841 41.771 38.8206 41.9586 38.7264C44.5863 37.4071 52 30.0571 52 28.7379C52 26.2879 50.3108 26.4764 44.2109 29.7744L38.8618 32.6014L35.8588 26.7591C34.1696 23.461 32.5742 20.4456 32.3865 20.0687C32.1988 19.5975 34.2634 17.2417 36.891 14.7917C39.5187 12.3417 41.6771 9.79749 41.6771 9.23211C41.6771 6.78211 38.6741 7.0648 33.7003 9.89172C30.885 11.4937 28.2574 12.8129 27.882 12.8129C27.4128 12.8129 25.0666 10.2687 22.5328 7.15903C17.8406 1.22249 14.4622 -1.41598 14.4622 0.751335ZM26.1928 27.5129C27.0374 28.8321 28.3512 31.6591 29.102 33.8264C30.4158 37.4071 30.3219 37.8783 28.8204 38.9148C27.9758 39.5744 26.8497 40.1398 26.4743 40.1398C26.0051 40.1398 24.3159 37.3129 22.6267 33.9206C19.7175 27.8898 19.6237 27.7014 21.4067 26.3821C23.9405 24.5917 24.3159 24.686 26.1928 27.5129Z" fill="black"/>
</svg>
