<svg width="121" height="133" viewBox="0 0 121 133" fill="none" xmlns="http://www.w3.org/2000/svg">
<path fill-rule="evenodd" clip-rule="evenodd" d="M12.718 0.781738C12.3477 1.35148 11.6997 3.25061 11.3294 4.95984C9.61692 11.9233 5.8216 17.3675 2.67426 17.3675C1.19316 17.3675 -0.380509 18.8235 0.082335 19.7731C0.221188 20.1529 1.3783 20.9126 2.62798 21.4823C6.33073 23.1282 7.21013 24.7742 9.33922 33.7001C10.7277 39.2709 11.7923 40.9168 12.9957 39.2076C13.4122 38.7011 13.8288 37.0552 14.0139 35.5992C14.7545 29.522 17.0224 25.3439 21.188 22.4319C23.5485 20.786 23.5948 19.2034 21.3732 17.3042C18.5035 14.8986 17.5316 12.8729 16.0505 6.47914C14.5694 0.148693 13.8751 -1.05409 12.718 0.781738ZM16.0505 15.0886C16.6059 16.2913 17.5778 17.8107 18.2258 18.4437L19.3829 19.5832L16.9761 22.0521C15.6802 23.3815 13.9677 25.9136 13.1808 27.6229L11.6997 30.8514L10.45 26.9898C9.75578 24.9008 8.59867 22.3686 7.85812 21.419L6.51587 19.5832L8.69123 16.6712C9.94091 15.0886 11.4683 12.2399 12.1626 10.3407L13.4122 6.98558L14.2454 9.89759C14.7082 11.5435 15.495 13.8858 16.0505 15.0886ZM33.1762 72.1964C32.8209 72.8784 31.897 75.6065 31.2574 78.3347C28.1306 90.2216 24.2219 95.7753 17.826 97.8214C13.0647 99.2829 12.7093 101.816 16.9733 103.862C23.2981 106.785 25.359 110.098 27.6331 121.205C29.4808 129.975 30.6178 132.605 32.4655 132.215C33.7447 132.021 34.2422 130.754 35.2371 125.493C37.1559 114.775 39.501 110.488 45.7548 106.103C49.166 103.667 49.9477 101.232 47.8157 99.2829C42.8411 94.7035 40.4249 90.0267 38.2219 80.7705C36.0899 71.6117 34.7396 69.3708 33.1762 72.1964ZM36.4452 89.1498C37.6533 92.6574 39.6432 96.8471 40.9224 98.5034L43.1964 101.426L41.1355 103.473C37.9376 106.59 34.5265 111.754 33.0341 115.749L31.6838 119.257L30.9732 116.821C29.1255 110.195 26.9224 104.934 25.4301 103.278L23.7245 101.426L27.4199 96.165C29.4808 93.242 31.826 89.0524 32.5366 86.8114L32.6304 86.5423L32.6305 86.5422C33.3691 84.4241 33.9637 82.7192 34.1001 82.7192C34.1711 82.7192 35.2371 85.6422 36.4452 89.1498ZM99.0556 53.5432C100.792 50.9907 103.708 44.4131 105.653 38.9155C107.597 33.516 109.472 29 109.819 29C111 29 111.764 31.5525 112.25 36.8538C113.014 46.6711 113.986 49.8126 117.597 54.623C119.472 57.1755 121 59.728 121 60.3171C121 60.9061 119.819 62.4768 118.361 63.7531C114.611 67.091 112.111 71.5087 111.278 76.4173C109.611 85.8419 109.056 88.0017 108.083 88.5907C106.278 89.5724 105.097 86.8236 102.875 76.9082C101.347 69.7416 100.167 66.2074 98.3611 63.4586C97.0417 61.3969 96 59.3353 96 58.9426C96 58.5499 97.3889 56.0956 99.0556 53.5432ZM112.875 55.2121C111.694 52.9541 110.236 49.0272 109.542 46.3766C109.495 46.2038 109.448 46.0332 109.403 45.8654C108.774 43.5544 108.287 41.7625 108.222 41.7625C108.222 41.7625 107.111 44.4131 105.792 47.6528C104.472 50.8925 102.736 54.4267 101.833 55.6048L100.236 57.7646L101.833 60.5134C102.736 62.0842 104.056 65.422 104.681 67.9745C105.988 73.1919 106.465 75.4307 106.984 75.4404C107.402 75.4483 107.848 74.0067 108.778 71.5087C109.75 68.6617 111.556 64.833 112.736 62.8695L114.958 59.3353L112.875 55.2121Z" fill="black"/>
</svg>
