<svg width="107" height="100" viewBox="0 0 107 100" fill="none" xmlns="http://www.w3.org/2000/svg">
<path d="M30.1758 0.665273C23.1524 -0.421343 13.7633 1.73258 6.03655 6.10238C0.86372 9.09224 -0.661833 11.6219 2.96575 11.0572C4.17494 10.869 7.24457 9.92803 9.85763 8.86167C15.3346 6.62439 24.0922 5.13949 27.7475 5.87094C34.1452 7.08303 35.855 10.6996 33.8346 18.6439C33.2053 21.0481 32.3559 24.5812 31.8565 26.5254C31.357 28.4697 31.2406 31.5846 31.6149 33.5706C32.2255 36.811 32.5129 37.1873 35.4718 38.8177C40.1075 41.3052 44.6622 41.6393 56.9146 40.3214C68.8541 39.0663 72.349 39.2333 72.9713 41.3865C73.4921 43.2889 71.3964 48.5364 68.2242 53.2404C61.9221 62.5856 61.4186 68.8155 66.5022 72.2437C70.0782 74.564 74.4439 75.0445 81.7414 73.8524C90.5609 72.4093 95.8061 72.388 97.79 73.7259C101.014 75.8998 100.006 82.6106 95.0366 91.8512C93.573 94.4227 92.4391 97.3078 92.5544 98.2067C92.5596 99.6701 92.7456 99.7955 94.1634 99.5655C96.7707 99.0427 103.992 89.4047 105.354 84.5754C107.496 76.9865 105.119 69.5442 99.8972 67.3913C96.3322 65.9909 93.6068 65.8865 86.2896 66.9741C75.0743 68.6264 69.2937 68.1042 69.3847 65.4283C69.3905 64.8847 71.4717 60.9961 73.911 56.7103C80.6957 45.0445 81.2612 38.8564 75.8057 35.1774C72.396 32.878 68.7348 32.6901 56.3781 34.0289C45.5631 35.2212 41.7977 35.0543 39.0079 33.1729C37.2101 31.9605 37.2923 30.0999 39.4987 22.2811C42.9351 10.3646 39.3806 2.12804 30.1758 0.665273Z" fill="black"/>
</svg>
