<svg width="224" height="148" viewBox="0 0 224 148" fill="none" xmlns="http://www.w3.org/2000/svg">
<path fill-rule="evenodd" clip-rule="evenodd" d="M143.183 5.48647C137.626 4.27279 136.402 2.4056 140.169 0.91184C145.632 -1.23543 152.225 0.445043 158.158 5.57983C163.621 10.4345 166.07 17.0631 164.563 22.8514C163.15 27.7061 160.89 26.8658 159.1 20.8908C156.934 13.3287 150.435 7.07358 143.183 5.48647ZM91.6793 27.6413C97.4447 21.7099 102.265 18.603 109.826 15.9668C120.695 12.0125 134.873 14.178 143.946 21.0509C151.602 26.794 153.776 31.9722 154.721 45.9062C155.099 51.4611 155.76 54.9446 156.422 55.1329C157.084 55.4153 161.904 54.4738 167.197 53.1557C191.581 46.8477 208.405 48.8249 217.384 59.0871C220.881 62.9473 224 70.2909 224 74.3393C224 78.6702 220.786 85.8255 217.006 90.0622C205.664 102.584 185.06 106.821 159.163 102.019L156.233 101.454L155.76 109.928C155.288 120.284 151.885 128.099 146.592 131.205C141.961 133.842 134.589 133.559 128.162 130.452C123.153 128.004 114.268 120.19 108.976 113.505L106.046 109.928L104.344 113.035C99.4295 122.638 92.1519 128.004 84.2127 128.004C74.5722 127.91 65.9713 122.45 58.5992 111.528C56.1418 107.856 53.4954 104.373 52.7392 103.714C51.227 102.49 48.4861 102.867 34.0253 106.256C29.5831 107.292 22.4945 108.61 18.2414 109.08C13.8937 109.645 8.69536 110.963 6.71055 111.999C1.98481 114.353 0 114.353 0 112.093C0 108.986 4.25316 105.032 17.2962 95.7112C24.1958 90.8154 30.4338 86.108 31.0954 85.2606C31.757 84.5074 33.0802 80.2707 34.0253 76.034C36.7662 63.5121 41.9646 53.6265 47.919 49.6722C53.3063 46.1887 62.8523 48.0717 69.5629 53.9089C71.9257 55.9802 73.9105 57.4866 74.0051 57.2983C74.1941 57.11 75.5172 53.815 77.0294 50.0492L77.0295 50.0488C80.4321 41.4812 85.0633 34.42 91.6793 27.6413ZM150.184 47.3185C149.144 31.7839 145.836 25.9466 135.156 21.4275C129.769 19.0737 119.939 18.5088 114.268 20.1094C99.335 24.4402 86.0084 38.8451 80.3375 56.9217C79.1089 60.4994 77.6911 64.077 77.0295 64.8302C75.3283 66.6191 72.5873 65.3951 70.2245 61.6292C65.9713 55.1329 56.0473 50.9903 51.1325 53.5323C46.1232 56.2627 40.9249 66.7132 38.2785 79.2351C37.5224 82.7186 36.3882 86.4846 35.7266 87.6143C35.065 88.65 30.1502 92.5101 24.8574 96.1819C19.47 99.7596 15.1224 103.149 15.1224 103.714C15.1224 104.844 18.4304 104.279 35.9156 100.607C42.9097 99.1006 49.6203 97.8766 50.7544 97.8766C54.535 97.8766 57.654 100.042 60.6785 104.844C67.6726 115.765 76.8405 122.638 84.2127 122.638C90.7342 122.638 97.8228 116.33 100.753 108.139C102.359 103.526 103.683 101.643 105.478 101.643C106.14 101.643 109.732 105.314 113.323 109.834C132.982 134.689 149.522 134.124 149.9 108.704L149.918 107.625C150.039 100.396 150.068 98.6378 150.95 97.6182C151.234 97.2907 151.605 97.0393 152.096 96.7072L152.098 96.7059C152.21 96.6302 152.328 96.5503 152.452 96.4644C154.437 95.2404 155.666 95.2404 164.078 96.4644C180.523 98.9123 192.905 97.7825 203.49 92.7926C221.543 84.4133 222.96 65.301 206.231 57.5807C201.411 55.3212 199.804 55.0387 190.447 55.1329C182.508 55.1329 177.593 55.7919 169.843 57.6749C151.791 62.0999 151.129 61.8175 150.184 47.3185ZM75.3848 23.0656C74.3346 24.2772 72.0434 27.3529 70.4205 29.9626L67.3655 34.7159L62.4966 33.1315C57.3414 31.3606 54 31.6402 54 33.6907C54 34.3431 54.9547 35.3683 56.1958 36.0207C57.3414 36.5799 60.5873 38.5372 63.2604 40.4013C70.325 44.9682 71.3751 44.3158 76.3395 31.9198C78.6307 26.4209 80.2536 21.7607 79.9672 21.4811C78.9171 20.4559 77.1987 21.1083 75.3848 23.0656ZM4.20746 90.7119C5.05652 88.5494 10.4339 81.5917 15.0566 76.6085C18.5472 72.8476 21 71.9074 21 74.352C21 75.4803 10.5282 89.1135 7.50937 91.8401C5.2452 93.8146 3.3584 93.1565 4.20746 90.7119ZM24.9284 115.649C14.8892 119.205 11.6728 121.704 15.669 122.953C17.5208 123.53 32.4334 118.629 34.8701 116.61C38.5739 113.631 32.6284 113.054 24.9284 115.649ZM159.562 130.022C160.687 127.98 162 126.031 162.562 125.66C164.437 124.361 165 124.917 165 127.888C165 131.693 162.187 137.54 158.812 141.067C153.468 146.636 141.092 149.513 132.748 147.193C127.404 145.708 122.247 141.624 123.091 139.489C123.654 138.004 124.029 138.097 128.435 139.768C134.811 142.274 143.436 142.181 149.062 139.675C154.406 137.354 157.125 134.756 159.562 130.022Z" fill="black"/>
</svg>
