<svg width="25" height="18" viewBox="0 0 25 18" fill="none" xmlns="http://www.w3.org/2000/svg">
<path d="M20.8303 1.50747C19.2535 0.793091 17.5888 0.286285 15.8789 0C15.6449 0.413926 15.4332 0.8398 15.2446 1.27584C13.4232 1.00424 11.571 1.00424 9.74961 1.27584C9.56095 0.839845 9.34924 0.413976 9.11535 0C7.40433 0.288702 5.7386 0.796712 4.16019 1.51121C1.02664 6.099 0.177189 10.5729 0.601917 14.9832C2.437 16.3249 4.49098 17.3453 6.67458 18C7.16626 17.3456 7.60134 16.6514 7.97519 15.9247C7.26511 15.6622 6.57975 15.3384 5.92706 14.957C6.09884 14.8337 6.26684 14.7067 6.42918 14.5834C8.32837 15.4673 10.4012 15.9255 12.5 15.9255C14.5987 15.9255 16.6715 15.4673 18.5707 14.5834C18.735 14.7161 18.903 14.8431 19.0729 14.957C18.4189 15.339 17.7323 15.6635 17.0209 15.9265C17.3943 16.6529 17.8294 17.3465 18.3216 18C20.507 17.3479 22.5626 16.328 24.398 14.9851C24.8963 9.87049 23.5467 5.43773 20.8303 1.50747ZM8.51318 12.2709C7.32961 12.2709 6.35179 11.208 6.35179 9.90037C6.35179 8.59278 7.29563 7.52055 8.5094 7.52055C9.72318 7.52055 10.6934 8.59278 10.6727 9.90037C10.6519 11.208 9.71941 12.2709 8.51318 12.2709ZM16.4867 12.2709C15.3013 12.2709 14.3272 11.208 14.3272 9.90037C14.3272 8.59278 15.2711 7.52055 16.4867 7.52055C17.7024 7.52055 18.6651 8.59278 18.6444 9.90037C18.6236 11.208 17.693 12.2709 16.4867 12.2709Z" fill="white"/>
</svg>
