<svg width="21" height="21" viewBox="0 0 21 21" fill="none" xmlns="http://www.w3.org/2000/svg">
<path d="M11.8249 9.83618H8.49154C8.04951 9.83618 7.62559 9.66059 7.31303 9.34803C7.00046 9.03547 6.82487 8.61154 6.82487 8.16952C6.82487 7.72749 7.00046 7.30356 7.31303 6.991C7.62559 6.67844 8.04951 6.50285 8.49154 6.50285H12.6582C12.8792 6.50285 13.0912 6.59065 13.2475 6.74693C13.4037 6.90321 13.4915 7.11517 13.4915 7.33618C13.4915 7.5572 13.5793 7.76916 13.7356 7.92544C13.8919 8.08172 14.1039 8.16952 14.3249 8.16952C14.5459 8.16952 14.7578 8.08172 14.9141 7.92544C15.0704 7.76916 15.1582 7.5572 15.1582 7.33618C15.1582 6.67314 14.8948 6.03726 14.426 5.56841C13.9571 5.09957 13.3212 4.83618 12.6582 4.83618H10.9915V3.16952C10.9915 2.9485 10.9037 2.73654 10.7475 2.58026C10.5912 2.42398 10.3792 2.33618 10.1582 2.33618C9.93719 2.33618 9.72523 2.42398 9.56895 2.58026C9.41267 2.73654 9.32487 2.9485 9.32487 3.16952V4.83618H8.49154C7.60748 4.83618 6.75963 5.18737 6.13451 5.81249C5.50939 6.43761 5.1582 7.28546 5.1582 8.16952C5.1582 9.05357 5.50939 9.90142 6.13451 10.5265C6.75963 11.1517 7.60748 11.5028 8.49154 11.5028H11.8249C12.2669 11.5028 12.6908 11.6784 13.0034 11.991C13.3159 12.3036 13.4915 12.7275 13.4915 13.1695C13.4915 13.6115 13.3159 14.0355 13.0034 14.348C12.6908 14.6606 12.2669 14.8362 11.8249 14.8362H7.6582C7.43719 14.8362 7.22523 14.7484 7.06895 14.5921C6.91267 14.4358 6.82487 14.2239 6.82487 14.0028C6.82487 13.7818 6.73707 13.5699 6.58079 13.4136C6.42451 13.2573 6.21255 13.1695 5.99154 13.1695C5.77052 13.1695 5.55856 13.2573 5.40228 13.4136C5.246 13.5699 5.1582 13.7818 5.1582 14.0028C5.1582 14.6659 5.4216 15.3018 5.89044 15.7706C6.35928 16.2395 6.99516 16.5028 7.6582 16.5028H9.32487V18.1695C9.32487 18.3905 9.41267 18.6025 9.56895 18.7588C9.72523 18.9151 9.93719 19.0028 10.1582 19.0028C10.3792 19.0028 10.5912 18.9151 10.7475 18.7588C10.9037 18.6025 10.9915 18.3905 10.9915 18.1695V16.5028H11.8249C12.7089 16.5028 13.5568 16.1517 14.1819 15.5265C14.807 14.9014 15.1582 14.0536 15.1582 13.1695C15.1582 12.2855 14.807 11.4376 14.1819 10.8125C13.5568 10.1874 12.7089 9.83618 11.8249 9.83618V9.83618Z" fill="black"/>
</svg>
