<svg width="20" height="21" viewBox="0 0 20 21" fill="none" xmlns="http://www.w3.org/2000/svg">
<path d="M17.7493 8.90012C17.5152 8.61899 17.2222 8.39269 16.891 8.23718C16.5598 8.08167 16.1986 8.00074 15.8327 8.00012H12.0327L12.4993 6.80845C12.6935 6.28669 12.7581 5.72562 12.6877 5.17339C12.6174 4.62115 12.4141 4.09422 12.0953 3.63781C11.7766 3.1814 11.3519 2.80912 10.8576 2.5529C10.3634 2.29669 9.81438 2.1642 9.25768 2.16679C9.09738 2.16712 8.94058 2.21368 8.80607 2.30089C8.67157 2.38809 8.56507 2.51224 8.49935 2.65845L6.12435 8.00012H4.16602C3.50297 8.00012 2.86709 8.26351 2.39825 8.73235C1.92941 9.20119 1.66602 9.83708 1.66602 10.5001V16.3335C1.66602 16.9965 1.92941 17.6324 2.39825 18.1012C2.86709 18.5701 3.50297 18.8335 4.16602 18.8335H14.7743C15.3592 18.8333 15.9255 18.628 16.3746 18.2535C16.8238 17.8789 17.1274 17.3587 17.2327 16.7835L18.291 10.9501C18.3565 10.5896 18.3419 10.2191 18.2483 9.86485C18.1547 9.51059 17.9843 9.18125 17.7493 8.90012ZM5.83268 17.1668H4.16602C3.945 17.1668 3.73304 17.079 3.57676 16.9227C3.42048 16.7664 3.33268 16.5545 3.33268 16.3335V10.5001C3.33268 10.2791 3.42048 10.0671 3.57676 9.91086C3.73304 9.75458 3.945 9.66679 4.16602 9.66679H5.83268V17.1668ZM16.666 10.6501L15.6077 16.4835C15.5722 16.6776 15.4689 16.8528 15.3163 16.978C15.1637 17.1031 14.9717 17.17 14.7743 17.1668H7.49935V9.00845L9.76602 3.90845C9.99934 3.97647 10.216 4.09212 10.4024 4.2481C10.5888 4.40409 10.7408 4.59701 10.8488 4.8147C10.9569 5.03238 11.0187 5.27011 11.0302 5.51287C11.0418 5.75563 11.0029 5.99815 10.916 6.22512L10.4743 7.41679C10.3802 7.66867 10.3485 7.93957 10.3817 8.20639C10.415 8.47321 10.5124 8.72802 10.6655 8.94907C10.8186 9.17012 11.0229 9.35084 11.2609 9.47582C11.499 9.6008 11.7638 9.66631 12.0327 9.66679H15.8327C15.9551 9.66659 16.0761 9.69336 16.187 9.74522C16.2979 9.79707 16.396 9.87272 16.4744 9.96678C16.5546 10.0596 16.6134 10.1689 16.6466 10.287C16.6797 10.4052 16.6863 10.5291 16.666 10.6501Z" fill="black"/>
</svg>
