<svg width="130" height="30" viewBox="0 0 130 30" fill="none" xmlns="http://www.w3.org/2000/svg">
<path d="M3.17773 16.1142C3.17773 20.9365 7.24381 24.9317 12.3674 24.9317C17.4909 24.9317 21.557 20.9365 21.557 16.1142C21.557 11.2919 17.4909 7.29663 12.3674 7.29663C7.24381 7.29663 3.17773 11.2919 3.17773 16.1142Z" stroke="black" stroke-width="3.1453"/>
<path d="M7.91597 0.470834C8.56105 1.96059 10.68 4.56427 10.68 4.56427L6.32829 1.87784C5.77608 1.53694 5.67883 0.786777 6.2371 0.455958C6.53003 0.282365 6.82508 0.143101 7.07475 0.0381678C7.39781 -0.0976256 7.77623 0.148235 7.91597 0.470834Z" fill="black"/>
<path d="M2.31266 1.01658C3.84417 2.61784 8.49228 5.01843 8.49228 5.01843L0.820462 3.96688C0.198177 3.88159 -0.200826 3.2603 0.105193 2.70273C0.497176 1.98853 1.01536 1.36421 1.39326 0.955087C1.63404 0.694403 2.06897 0.761812 2.31266 1.01658Z" fill="black"/>
<path d="M20.7698 12.7081L19.4836 12.1791C12.563 9.33254 5.36685 15.6173 7.21082 22.8976" stroke="black" stroke-width="3.1453" stroke-linecap="round"/>
<path d="M20.7692 17.5713L20.2982 17.3695C15.7389 15.4161 10.9153 19.5273 12.0914 24.3643" stroke="black" stroke-width="3.1453" stroke-linecap="round"/>
<path d="M22.2769 25.1241C21.7192 23.9523 20.9604 22.1472 21.1951 21.4309L16.1504 25.4642C17.9324 25.3433 20.2626 25.7007 21.6434 25.9582C22.1007 26.0435 22.4776 25.5457 22.2769 25.1241Z" fill="black"/>
<path d="M39.4367 17.1074C40.805 17.9048 41.4891 19.1085 41.4891 20.7185C41.4891 22.0576 41.0207 23.156 40.0837 24.0136C39.1467 24.8712 37.9941 25.3001 36.6258 25.3001H30V9.50146H36.1573C37.4958 9.50146 38.6187 9.92276 39.526 10.7654C40.4481 11.5929 40.9091 12.6537 40.9091 13.9476C40.9091 15.2567 40.4183 16.3099 39.4367 17.1074ZM36.1573 12.4129H33.0786V15.8886H36.1573C36.6332 15.8886 37.0273 15.7231 37.3397 15.3921C37.6669 15.0611 37.8305 14.6473 37.8305 14.1508C37.8305 13.6542 37.6743 13.2405 37.362 12.9094C37.0497 12.5784 36.6481 12.4129 36.1573 12.4129ZM36.6258 22.3886C37.1463 22.3886 37.5776 22.2156 37.9197 21.8695C38.2618 21.5084 38.4328 21.057 38.4328 20.5153C38.4328 19.9887 38.2618 19.5524 37.9197 19.2063C37.5776 18.8452 37.1463 18.6646 36.6258 18.6646H33.0786V22.3886H36.6258Z" fill="black"/>
<path d="M50.9752 14.0153H53.8531V25.3001H50.9752V24.0362C50.2762 25.0894 49.1682 25.616 47.6511 25.616C46.4316 25.616 45.4202 25.2023 44.6171 24.3747C43.8289 23.5472 43.4347 22.4036 43.4347 20.9442V14.0153H46.3126V20.583C46.3126 21.3354 46.5134 21.9146 46.9149 22.3209C47.3165 22.7121 47.8519 22.9077 48.5212 22.9077C49.2648 22.9077 49.8597 22.6745 50.3059 22.208C50.7521 21.7416 50.9752 21.042 50.9752 20.1091V14.0153Z" fill="black"/>
<path d="M59.9913 22.5692H64.9439V25.3001H56.1319V23.3591L60.8391 16.7462H56.355V14.0153H64.7209V15.9563L59.9913 22.5692Z" fill="black"/>
<path d="M70.318 22.5537H75.2706V25.2846H66.4585V23.3437L71.1657 16.7308H66.6816V13.9999H75.0475V15.9409L70.318 22.5537Z" fill="black"/>
<path d="M77.3809 25.4757V9H80.2587V25.4757H77.3809Z" fill="black"/>
<path d="M90.1655 14.191H93.2441L89.1839 25.4757C88.6039 27.1007 87.8305 28.2743 86.8638 28.9965C85.9119 29.7338 84.7221 30.0648 83.2943 29.9896V27.2812C84.0677 27.2963 84.6775 27.1308 85.1237 26.7847C85.5847 26.4386 85.9491 25.8819 86.2168 25.1146L81.6435 14.191H84.789L87.6892 21.7743L90.1655 14.191Z" fill="black"/>
<path d="M102.196 16.9896H99.6751V21.684C99.6751 22.0752 99.7718 22.3611 99.9651 22.5416C100.158 22.7222 100.441 22.8275 100.813 22.8576C101.185 22.8727 101.646 22.8651 102.196 22.8351V25.4757C100.218 25.7014 98.8199 25.5133 98.0019 24.9114C97.1988 24.3096 96.7972 23.2338 96.7972 21.684V16.9896H94.8563V14.191H96.7972V11.9115L99.6751 11.0312V14.191H102.196V16.9896Z" fill="black"/>
<path d="M105.653 12.8368C105.177 12.8368 104.761 12.6638 104.404 12.3177C104.061 11.9566 103.89 11.5353 103.89 11.0538C103.89 10.5723 104.061 10.151 104.404 9.78993C104.761 9.42882 105.177 9.24826 105.653 9.24826C106.144 9.24826 106.56 9.42882 106.902 9.78993C107.259 10.151 107.438 10.5723 107.438 11.0538C107.438 11.5353 107.259 11.9566 106.902 12.3177C106.56 12.6638 106.144 12.8368 105.653 12.8368ZM104.225 25.4757V14.191H107.103V25.4757H104.225Z" fill="black"/>
<path d="M115.047 25.7916C113.366 25.7916 111.96 25.2199 110.83 24.0764C109.715 22.9329 109.157 21.5185 109.157 19.8333C109.157 18.1481 109.715 16.7338 110.83 15.5903C111.96 14.4468 113.366 13.875 115.047 13.875C116.132 13.875 117.121 14.1383 118.014 14.6649C118.906 15.1915 119.583 15.8987 120.044 16.7864L117.567 18.2535C117.344 17.787 117.002 17.4184 116.541 17.1476C116.095 16.8767 115.589 16.7413 115.024 16.7413C114.162 16.7413 113.448 17.0347 112.883 17.6215C112.317 18.1933 112.035 18.9305 112.035 19.8333C112.035 20.721 112.317 21.4583 112.883 22.0451C113.448 22.6169 114.162 22.9028 115.024 22.9028C115.604 22.9028 116.117 22.7749 116.564 22.5191C117.025 22.2482 117.367 21.8796 117.59 21.4132L120.088 22.8576C119.598 23.7453 118.906 24.46 118.014 25.0017C117.121 25.5283 116.132 25.7916 115.047 25.7916Z" fill="black"/>
<path d="M124.243 17.3958C124.243 17.6967 124.437 17.945 124.823 18.1406C125.225 18.3212 125.708 18.4867 126.274 18.6371C126.839 18.7726 127.404 18.9531 127.969 19.1788C128.534 19.3895 129.01 19.7506 129.397 20.2621C129.798 20.7737 129.999 21.4132 129.999 22.1805C129.999 23.3391 129.568 24.2344 128.705 24.8663C127.857 25.4832 126.794 25.7916 125.515 25.7916C123.225 25.7916 121.663 24.8964 120.83 23.1059L123.329 21.684C123.656 22.662 124.385 23.151 125.515 23.151C126.541 23.151 127.054 22.8275 127.054 22.1805C127.054 21.8796 126.854 21.6389 126.452 21.4583C126.065 21.2627 125.589 21.0897 125.024 20.9392C124.459 20.7888 123.894 20.6007 123.329 20.375C122.764 20.1493 122.28 19.7957 121.879 19.3142C121.492 18.8177 121.299 18.2008 121.299 17.4635C121.299 16.3501 121.7 15.4774 122.503 14.8455C123.321 14.1985 124.333 13.875 125.537 13.875C126.445 13.875 127.27 14.0856 128.014 14.5069C128.757 14.9132 129.345 15.5 129.776 16.2674L127.322 17.6215C126.965 16.8542 126.37 16.4705 125.537 16.4705C125.166 16.4705 124.853 16.5532 124.6 16.7187C124.362 16.8842 124.243 17.1099 124.243 17.3958Z" fill="black"/>
</svg>
