<svg width="21" height="21" viewBox="0 0 21 21" fill="none" xmlns="http://www.w3.org/2000/svg">
<path d="M15.9228 7.98151L7.87284 3.36484C7.43724 3.11331 6.94283 2.98154 6.43983 2.98292C5.93683 2.9843 5.44315 3.11878 5.00894 3.37271C4.57473 3.62663 4.21546 3.99095 3.96762 4.42866C3.71978 4.86636 3.5922 5.36187 3.59784 5.86484V15.1315C3.59784 15.8874 3.8981 16.6123 4.43258 17.1468C4.96706 17.6812 5.69197 17.9815 6.44784 17.9815C6.9482 17.9807 7.43958 17.8485 7.87284 17.5982L15.9228 12.9815C16.3554 12.7312 16.7145 12.3715 16.9642 11.9385C17.2138 11.5056 17.3452 11.0146 17.3452 10.5148C17.3452 10.0151 17.2138 9.52409 16.9642 9.09114C16.7145 8.6582 16.3554 8.29852 15.9228 8.04817V7.98151ZM15.0895 11.4732L7.0395 16.1565C6.85907 16.2588 6.65522 16.3125 6.44784 16.3125C6.24045 16.3125 6.0366 16.2588 5.85617 16.1565C5.67625 16.0526 5.52685 15.9032 5.42299 15.7233C5.31913 15.5434 5.26447 15.3393 5.2645 15.1315V5.83151C5.26447 5.62375 5.31913 5.41965 5.42299 5.23973C5.52685 5.0598 5.67625 4.91038 5.85617 4.80651C6.03734 4.7058 6.24058 4.65142 6.44784 4.64817C6.65495 4.65243 6.85795 4.70675 7.0395 4.80651L15.0895 9.45651C15.2695 9.56034 15.419 9.70973 15.5229 9.88966C15.6268 10.0696 15.6815 10.2737 15.6815 10.4815C15.6815 10.6893 15.6268 10.8934 15.5229 11.0734C15.419 11.2533 15.2695 11.4027 15.0895 11.5065V11.4732Z" fill="black"/>
</svg>
