<svg width="97" height="97" viewBox="0 0 97 97" fill="none" xmlns="http://www.w3.org/2000/svg">
<path d="M65.6664 48.2595C65.6664 38.6456 57.8728 30.8521 48.259 30.8521C38.6451 30.8521 30.8516 38.6456 30.8516 48.2595C30.8516 57.8733 38.6451 65.6669 48.259 65.6669" stroke="black" stroke-width="6"/>
<path d="M79.5924 48.2592C79.5924 30.9543 65.564 16.9259 48.2591 16.9259C30.9542 16.9259 16.9258 30.9543 16.9258 48.2592C16.9258 65.5642 30.9542 79.5926 48.2591 79.5926" stroke="#9BC6BB" stroke-width="6"/>
<path d="M93.5185 48.2593C93.5185 23.2633 73.2553 3 48.2593 3C23.2633 3 3 23.2633 3 48.2593C3 73.2553 23.2633 93.5185 48.2593 93.5185" stroke="black" stroke-width="6"/>
<rect x="55.2227" y="55.2222" width="41.7778" height="41.7778" fill="#9BC6BB"/>
</svg>
