<svg width="164" height="113" viewBox="0 0 164 113" fill="none" xmlns="http://www.w3.org/2000/svg">
<path opacity="0.5" d="M163.362 63.5966C163.362 100.047 147.313 106.597 110.862 106.597C74.4115 106.597 31.3623 100.047 31.3623 63.5966C31.3623 27.1458 58.8623 12.5966 94.8623 2.09664C130.862 -8.40332 163.362 27.1458 163.362 63.5966Z" fill="#60A695"/>
<path fill-rule="evenodd" clip-rule="evenodd" d="M24.9464 65.997C22.3116 57.2044 19.4284 48.5311 16.1857 39.8704C22.129 44.1542 29.6723 46.8961 36.5037 49.0436C37.3258 49.3072 38.1766 49.5869 39.0503 49.8742L39.0506 49.8743L39.0507 49.8744L39.0509 49.8744L39.0512 49.8745C40.6243 50.3918 42.2718 50.9335 43.9609 51.4497C37.2377 58.7474 33.1125 72.1267 33.9329 81.1699C33.9525 81.3854 34.0049 81.5856 34.0836 81.7678C31.9754 81.3484 30.1461 80.4571 28.9725 78.7904C27.2948 76.4266 26.5058 72.821 25.7885 69.5432C25.5126 68.283 25.2474 67.0711 24.9464 65.997ZM37.2603 82.0789C40.1779 82.1264 43.256 81.6429 45.7143 81.2568L45.7143 81.2568C46.2576 81.1715 46.7705 81.0909 47.2448 81.0219C57.0004 79.5342 66.6011 77.1541 76.047 74.7739C79.3035 73.9665 82.5779 73.0222 85.8641 72.0745C92.2659 70.2284 98.7124 68.3693 105.159 67.4846C107.482 67.1871 109.34 70.1623 106.862 71.3524C97.6407 75.7818 86.9363 78.1759 76.6763 80.4706L76.6762 80.4706C74.5314 80.9503 72.4059 81.4257 70.3175 81.9144C69.0261 82.2115 67.7218 82.5188 66.4067 82.8287C56.5262 85.1568 46.0355 87.6287 35.7859 86.9723C26.9595 86.3773 24.327 81.9144 21.8494 74.3276C17.982 62.29 14.2692 50.2525 11.3285 37.9183C10.5243 37.0478 10.5812 35.4103 12.004 34.7993C21.6163 31.237 31.4578 28.5936 41.2292 25.9691L41.2297 25.969L41.2302 25.9688L41.2308 25.9687L41.2313 25.9685L41.2332 25.968C42.6834 25.5785 44.132 25.1894 45.5782 24.7978C48.3329 24.0646 51.0876 23.2455 53.8493 22.4243L53.8494 22.4243L53.8495 22.4242L53.8496 22.4242L53.8497 22.4242L53.8498 22.4242L53.8499 22.4241C60.7916 20.36 67.7772 18.2828 74.9177 17.524C78.0862 17.1933 81.5428 17.209 84.8096 17.8735C85.6698 16.5336 87.924 17.3285 88.0043 18.7688C90.9576 19.8521 93.5909 21.6219 95.4857 24.3432C99.2874 29.721 100.361 37.6668 101.335 44.8732L101.335 44.8736L101.335 44.874L101.335 44.8745L101.335 44.875C101.678 47.415 102.009 49.8632 102.442 52.0746C102.896 54.1962 99.7203 55.2569 99.1153 52.9839C97.7542 48.2862 96.5443 43.74 95.3344 39.0424C95.1072 38.1639 94.9008 37.2086 94.6869 36.2185L94.6868 36.2182C93.9044 32.5967 93.0214 28.5091 90.6462 26.0101C89.4296 24.7911 88.0402 23.9138 86.5318 23.3086C84.1245 29.6167 80.9354 35.496 77.0322 41.014C81.7234 42.2678 86.0973 45.5246 89.5874 48.8921C91.5534 50.8621 93.5195 52.9837 95.1831 55.4083L95.2169 55.4647C95.8134 56.4584 99.82 63.1335 97.4516 62.9852L97.4089 63.028C97.569 63.0441 97.7344 63.0797 97.9053 63.1367C98.8127 63.2883 99.4176 64.1975 99.4176 65.1067L99.4176 65.4098C99.4176 66.4706 98.5102 67.3798 97.6028 67.6829C97.5272 67.6829 97.4516 67.7207 97.376 67.7586C97.3003 67.7965 97.2247 67.8344 97.1491 67.8344C96.2417 68.1375 95.1831 67.8344 94.5781 67.2282C92.7093 65.4337 91.1211 63.3178 89.5246 61.1908C88.0204 59.1866 86.5087 57.1726 84.7479 55.4083C82.615 53.2711 80.1452 51.6162 77.6644 49.9539L77.6642 49.9538C76.0314 48.8597 74.3938 47.7624 72.8443 46.5223C69.9863 49.932 66.5884 52.967 62.0624 53.7413C57.9245 54.5236 53.2626 53.8924 48.6801 52.765C47.8825 55.2274 46.8805 57.6403 45.8751 60.0613C44.914 62.3757 43.9498 64.6975 43.1583 67.0769C42.6731 68.4543 42.242 69.8425 41.8129 71.2242C40.6369 75.0107 39.4763 78.7482 37.2603 82.0789ZM74.4636 35.8598C77.3445 31.4722 79.8741 26.9086 82.387 22.3031C76.5246 21.6472 69.7742 23.5855 64.449 25.1146C63.7262 25.3221 63.0297 25.5221 62.3652 25.707C57.8215 26.9296 53.2777 28.2225 48.7274 29.5172L48.7273 29.5172C40.0353 31.9905 31.3194 34.4705 22.5345 36.4798C26.157 37.8717 29.7287 39.4854 33.3066 41.102C40.4 44.3069 47.5179 47.523 55.1057 49.0436C64.7493 50.8909 68.8073 44.6098 73.5153 37.3228L73.5157 37.3222C73.8282 36.8384 74.1436 36.3503 74.4636 35.8598ZM134.05 42.0729C131.026 43.4367 127.85 44.649 124.674 45.4067C122.708 45.8613 121.8 42.8306 123.918 42.376C126.791 41.6183 129.665 40.5575 132.538 39.3452C134.353 38.5875 135.865 41.3152 134.05 42.0729ZM116.205 56.6206C118.602 56.2536 121.043 55.916 123.505 55.5755C132.229 54.3691 141.221 53.1256 149.477 50.4075C151.896 49.6498 151.745 45.2552 148.872 45.5583C148.167 45.6367 147.564 45.7354 147.041 45.8833C139.156 46.7343 131.145 48.9013 123.324 51.0169L123.324 51.0169C120.621 51.7479 117.942 52.4728 115.297 53.1352C112.878 53.7413 113.936 57.0752 116.205 56.6206ZM118.66 63.9441C118.324 63.7855 118.059 63.66 117.882 63.5847C116.828 62.9978 117.079 60.0885 118.416 59.9663C122.014 59.6488 125.404 59.7468 128.85 60.0159C130.15 60.0404 132.146 60.0895 132.047 62.4121C131.776 70.1476 121.916 65.484 118.66 63.9441Z" fill="black"/>
</svg>
